<?xml version="1.0" encoding="UTF-8"?>
<svg width="132px" height="56px" viewBox="0 0 132 56" version="1.1" xmlns="http://www.w3.org/2000/svg" xmlns:xlink="http://www.w3.org/1999/xlink">
    <!-- Generator: Sketch 58 (84663) - https://sketch.com -->
    <title>bradesco</title>
    <desc>Created with Sketch.</desc>
    <defs>
        <rect id="path-1" x="0" y="0" width="132" height="56" rx="4"></rect>
    </defs>
    <g id="Home" stroke="none" stroke-width="1" fill="none" fill-rule="evenodd">
        <g id="27.0.0_home" transform="translate(-20.000000, -336.000000)">
            <g id="Group" transform="translate(20.000000, 336.000000)">
                <g id="bradesco">
                    <g id="Group-2">
                        <mask id="mask-2" fill="white">
                            <use xlink:href="#path-1"></use>
                        </mask>
                        <use id="Rectangle" fill="#B5121B" xlink:href="#path-1"></use>
                        <g id="logo-bradesco" mask="url(#mask-2)" fill="#FFFFFF" fill-rule="nonzero">
                            <g transform="translate(30.000000, 20.000000)" id="Shape">
                                <path d="M23.2102772,8.69043157 C22.6539521,8.69043157 22.1073628,8.81372383 21.7652229,8.9841165 L21.7652229,5.548557 C21.2214151,5.74942641 20.6463141,6.02787296 20.1657883,6.41506606 C19.9168328,6.61662812 19.8389473,6.81749752 19.8389473,7.1118751 L19.8389473,15.59272 C20.3521572,15.8095204 21.3931805,15.9951514 22.3876115,15.9951514 C24.9049824,15.9951514 26.3514276,14.4630027 26.3514276,12.249976 C26.3493414,10.0521876 25.323617,8.69043157 23.2102772,8.69043157 Z M22.4953995,14.4359892 C22.2937317,14.4359892 21.982885,14.4359892 21.7652229,14.3584121 L21.7652229,10.5010268 C22.0294773,10.3624962 22.4022151,10.2842264 22.8841316,10.2842264 C23.8472694,10.2842264 24.3604793,10.9498661 24.3604793,12.2035682 C24.3604793,13.5189165 23.754085,14.4359892 22.4953995,14.4359892 Z M31.2575192,8.75623362 C30.3409737,8.75623362 29.8124649,9.11225733 29.3152494,9.74672759 C29.2722102,9.4347596 29.1990864,9.12764906 29.0968918,8.82965485 C28.9098275,8.76731607 28.5836819,8.7520777 28.3041286,8.7520777 C28.0431601,8.75008178 27.782735,8.77609085 27.5273597,8.82965485 L27.5273597,15.8406898 C27.7603208,15.9023359 28.1490529,15.9182669 28.4904974,15.9182669 C28.813441,15.9207046 29.1359703,15.8947448 29.4543306,15.8406898 L29.4543306,12.4203687 C29.4543306,11.05792 30.1685129,10.3306342 31.1323461,10.3306342 C31.3451568,10.3254623 31.5580613,10.3358802 31.7693383,10.3618036 C31.8804548,9.85268026 31.8910832,9.32688949 31.8006316,8.81372383 C31.6224972,8.7756946 31.4410657,8.75504829 31.25891,8.7520777 L31.2575192,8.75623362 Z M6.92525033,12.1883299 L6.92525033,15.7596494 C6.92506688,15.8025721 6.94205613,15.8437999 6.97246266,15.8742161 C7.00286918,15.9046322 7.0441878,15.9217302 7.0872815,15.9217302 L8.08518958,15.9217302 L8.08518958,11.3363665 L7.08936772,11.9071127 C6.98673683,11.9612278 6.92370593,12.0685463 6.92664264,12.1841739 L6.92525033,12.1883299 Z M7.93567722,3.4103368 C6.89756177,3.41415332 5.86155658,3.50381355 4.83833744,3.67839356 C5.95660355,2.25488716 7.67176767,1.42498157 9.48643333,1.42934887 C10.877246,1.42934887 12.2680586,1.95230198 13.208248,2.73015144 C13.3772317,2.86868206 13.5072727,2.88322778 13.6373137,2.7557796 C13.7673547,2.62833143 13.7548374,2.50088325 13.6115837,2.3346465 C12.3883639,0.919556167 10.5921294,-0.0369977979 8.47114009,0.00109812391 C5.69925047,0.0523544551 3.34390924,1.80199625 2.44544427,4.22212627 C1.6691354,4.45557564 0.919011866,4.76799219 0.206931299,5.15443737 C0.0247348412,5.25625738 -0.0406333535,5.38370556 0.0247348412,5.5367819 C0.0894076297,5.67531252 0.219448613,5.72795416 0.401645071,5.67531252 C0.974659885,5.50976843 1.56019201,5.36985249 2.17145417,5.24171167 C2.10368478,5.56922177 2.0689735,5.90266224 2.06783863,6.23705421 C2.01568316,8.46878257 3.21317285,10.5855305 5.05808584,11.7464172 C5.2402823,11.8613976 5.39674872,11.8613976 5.50036426,11.720789 C5.60397981,11.5801804 5.59146249,11.4527322 5.43569148,11.3128163 C4.26393181,10.2669101 3.6137269,8.71121117 3.6137269,7.16798001 C3.61000998,6.40885396 3.76513702,5.65728449 4.06921804,4.96118715 C4.6804802,4.91062347 5.34459325,4.8718349 6.07337908,4.8718349 C10.810487,4.8718349 14.8055963,6.42822647 14.8055963,8.46878257 C14.8055963,9.50152838 13.4912784,10.5349668 11.9293958,11.2234641 C11.5517901,11.3890081 11.512152,11.5039886 11.5650028,11.6695327 C11.6171583,11.822609 11.7861421,11.8773286 11.9822466,11.8080633 C14.7172797,10.918004 16.7881998,9.44888675 16.7881998,7.67846536 C16.7881998,5.26803248 12.8821024,3.40618089 7.93706803,3.40618089 L7.93567722,3.4103368 Z M9.84734922,10.3264783 L8.52607719,11.0814702 L8.52607719,15.9196522 L9.94192448,15.9196522 C10.080955,15.9196522 10.1936616,15.8073919 10.1936616,15.6689118 L10.1936616,10.5024121 C10.1985294,10.3043134 10.0072927,10.2322774 9.84874003,10.3223223 L9.84734922,10.3264783 Z M68.6126609,8.66411076 C66.4527289,8.66411076 65.2406356,10.1346133 65.2406356,12.3476401 C65.2406356,14.5918362 66.51462,16 68.6126609,16 C70.7878919,16 71.9999926,14.5606668 71.9999926,12.3476401 C72.0034622,10.1138337 70.7892827,8.65926218 68.6140517,8.65926218 L68.6126609,8.66411076 Z M68.6126609,14.4526129 C67.5403444,14.4526129 67.2141988,13.5861039 67.2141988,12.3476401 C67.2141988,11.1403457 67.5403444,10.2114978 68.6126609,10.2114978 C69.7155754,10.2114978 70.026426,11.1119469 70.026426,12.3476401 C70.0278128,13.6429014 69.6703739,14.4477643 68.6140517,14.4477643 L68.6126609,14.4526129 Z M49.8123509,8.65926218 C47.7303043,8.65926218 46.4556245,10.0521876 46.4556245,12.3739609 C46.4556245,14.6957342 47.8074944,15.9951514 50.1231975,15.9951514 C50.9152653,15.9951514 51.7699197,15.8566208 52.3137274,15.59272 C52.4229105,15.1034431 52.4229105,14.5962559 52.3137274,14.106979 C51.5988497,14.3085411 50.9924554,14.432526 50.3248653,14.432526 C49.2525488,14.432526 48.5070732,14.0300945 48.3513022,12.8996846 L52.732362,12.8996846 C52.7942532,12.7299846 52.8095524,12.1571605 52.8095524,11.9251217 C52.8102475,9.83538719 51.6280568,8.65926218 49.8123509,8.65926218 Z M48.3519976,11.4915208 C48.4910788,10.6402501 49.0049841,10.1297648 49.781753,10.1297648 C50.6517063,10.1297648 50.9938462,10.7178273 51.0251395,11.4915208 L48.3519976,11.4915208 Z M63.2225665,14.416595 C62.2594287,14.416595 61.6231319,13.6546765 61.6231319,12.3275531 C61.6231319,11.05792 62.1356464,10.2378187 63.2385608,10.2378187 C63.6604428,10.2355505 64.0781874,10.3207028 64.4652576,10.4878664 C64.6072331,10.0006558 64.839045,9.54403498 65.148842,9.14134876 C64.5424477,8.83173281 63.9520477,8.66134014 62.9889099,8.66134014 C60.8602712,8.66134014 59.632879,10.1623195 59.632879,12.3324017 C59.632879,14.5765978 60.8908691,16 63.0667955,16 C63.8588633,16 64.5890399,15.8614694 65.1801353,15.5359224 C64.8597994,15.1327999 64.6124729,14.6771393 64.4492632,14.1894047 C63.9054555,14.4013566 63.6724944,14.416595 63.2218711,14.416595 L63.2225665,14.416595 Z M34.8173042,8.65926218 C34.1159747,8.6475557 33.4160934,8.72671987 32.7352577,8.89476425 C32.6107799,9.3283651 32.6267743,9.96283536 32.7352577,10.4116746 C33.3144116,10.2684191 33.9097878,10.2006655 34.5064576,10.2101125 C35.501584,10.2101125 35.9828052,10.612544 35.9828052,11.4333379 L35.9828052,11.5102224 C35.6879529,11.4797457 35.3305141,11.4485763 35.078777,11.4485763 C33.4320548,11.4485763 32.0189892,12.0366388 32.0189892,13.6151953 C32.0189892,15.3953138 33.293669,15.9986147 35.1427544,15.9986147 C36.0540507,15.9892771 36.9592509,15.8493108 37.8305012,15.5830228 L37.8305012,11.569098 C37.8318906,9.64975615 36.7908674,8.70566994 34.8173042,8.65926218 Z M35.9814144,14.416595 C35.7094295,14.4639323 35.4341255,14.4898714 35.1580533,14.4941721 C34.2721057,14.4941721 33.7908845,14.2309639 33.7908845,13.611732 C33.7908845,12.9925001 34.2721057,12.745223 35.1580533,12.745223 C35.4529056,12.745223 35.7950455,12.7763924 35.9814144,12.7916307 L35.9814144,14.416595 Z M43.4417335,7.1118751 L43.4417335,8.79848546 C43.111162,8.71836139 42.7714219,8.68202992 42.4313081,8.69043157 C40.3026693,8.69043157 38.857615,10.1138337 38.857615,12.3891993 C38.857615,14.7109725 40.271376,15.9951514 42.4779003,15.9951514 C43.4587002,16.0047325 44.4347687,15.8585979 45.3693998,15.5622432 L45.3693998,5.548557 C44.8255921,5.74942641 44.250491,6.02787296 43.7699653,6.41506606 C43.5189236,6.61662812 43.4417335,6.81680487 43.4417335,7.1118751 Z M43.4417335,14.3237794 C43.174379,14.4027227 42.8964942,14.4405616 42.617677,14.4359892 C41.3436926,14.4359892 40.8464771,13.5999569 40.8464771,12.3926625 C40.8464771,11.0461449 41.3436926,10.2260436 42.6023781,10.2260436 C42.8858915,10.2222425 43.1685066,10.2586248 43.4417335,10.3340974 L43.4417335,14.3237794 Z M57.2239915,11.6771518 L56.4472226,11.3522975 C55.9965993,11.1666665 55.7323449,11.0115122 55.7323449,10.7178273 C55.7323449,10.268988 56.136376,10.1761725 56.6648848,10.1761725 C57.2826907,10.1765359 57.8964313,10.2756927 58.4826769,10.4698575 C58.5759491,9.99457708 58.5759491,9.50580463 58.4826769,9.03052426 C58.0167547,8.78324709 57.146106,8.65926218 56.3853315,8.65926218 C54.8929895,8.65926218 53.7587818,9.46412511 53.7587818,10.6714195 C53.7587818,11.754729 54.2253994,12.2963837 55.5306771,12.8228001 L56.136376,13.0700773 C56.711477,13.3021161 56.882547,13.4413394 56.882547,13.8132941 C56.882547,14.3674166 56.3262219,14.4630027 55.8568227,14.4630027 C55.0800538,14.4630027 54.4889584,14.3085411 53.7434828,14.0474108 C53.6189918,14.5400545 53.6189918,15.0557465 53.7434828,15.5483902 C54.380475,15.8891755 55.2504283,15.9972294 56.1676693,15.9972294 C57.6433215,15.9972294 58.8248169,15.2235358 58.8248169,13.8306104 C58.8248169,12.6835768 58.3276013,12.1419221 57.2239915,11.6771518 Z"></path>
                            </g>
                        </g>
                    </g>
                </g>
            </g>
        </g>
    </g>
</svg>