<?xml version="1.0" encoding="UTF-8"?>
<svg width="132px" height="56px" viewBox="0 0 132 56" version="1.1" xmlns="http://www.w3.org/2000/svg" xmlns:xlink="http://www.w3.org/1999/xlink">
    <!-- Generator: Sketch 58 (84663) - https://sketch.com -->
    <title>elo</title>
    <desc>Created with Sketch.</desc>
    <defs>
        <rect id="path-1" x="0" y="0" width="132" height="56" rx="4"></rect>
    </defs>
    <g id="Home" stroke="none" stroke-width="1" fill="none" fill-rule="evenodd">
        <g id="27.0.0_home" transform="translate(-168.000000, -408.000000)">
            <g id="Group" transform="translate(20.000000, 336.000000)">
                <g id="elo" transform="translate(148.000000, 72.000000)">
                    <mask id="mask-2" fill="white">
                        <use xlink:href="#path-1"></use>
                    </mask>
                    <use id="Rectangle" fill="#222222" xlink:href="#path-1"></use>
                    <g id="Group-18" mask="url(#mask-2)">
                        <g transform="translate(40.000000, 18.000000)">
                            <path d="M8.04898449,4.37919347 C8.62868079,4.18557408 9.24842292,4.08136714 9.89346802,4.08136714 C12.7071071,4.08136714 15.0560751,6.07973406 15.5941506,8.73621069 L19.5824932,7.92274589 C18.6672485,3.4085404 14.6777182,0.0112288402 9.89346802,0.0112288402 C8.79722958,0.0112288402 7.74413529,0.189821362 6.75868773,0.51896658 L8.04898449,4.37919347 Z" id="Fill-2" fill="#F9C623"></path>
                            <path d="M3.34216915,17.3047711 L6.03923381,14.2554271 C4.83522535,13.1887518 4.07574884,11.6321283 4.07574884,9.8979451 C4.07574884,8.16502703 4.83432168,6.60917814 6.03758137,5.54371637 L3.33987123,2.49416579 C1.2953651,4.30557472 0.00509415998,6.95156869 0.00509415998,9.8979451 C0.00509415998,12.8463354 1.29588149,15.4931298 3.34216915,17.3047711" id="Fill-4" fill="#009ACB"></path>
                            <path d="M15.5929784,11.0652849 C15.0527599,13.7201865 12.7060898,15.714758 9.89348352,15.714758 C9.24789621,15.714758 8.62655328,15.6108351 8.04719263,15.4159506 L6.75526925,19.277675 C7.74069099,19.6066136 8.79595411,19.7846639 9.89348352,19.7846639 C14.6731637,19.7846639 18.6618935,16.392981 19.5808562,11.882855 L15.5929784,11.0652849 Z" id="Fill-6" fill="#DC3E2A"></path>
                            <path d="M31.0401162,13.181086 C31.0387994,13.1821446 31.0380506,13.1831516 31.0369146,13.1841844 L30.9234385,13.1077332 C30.5968236,13.637908 30.0872785,14.0671807 29.4439116,14.3461589 C28.220203,14.8783734 27.0862683,14.7415566 26.2718998,14.0271865 L26.1969979,14.1410757 C26.1961458,14.1398106 26.1958618,14.1388036 26.1946999,14.1388036 L24.8059539,16.2164101 C25.1506682,16.4561171 25.5208404,16.6589024 25.9096284,16.8212029 C27.4437115,17.4583472 29.0134771,17.4290939 30.559747,16.7565254 C31.678345,16.2719476 32.5557385,15.5325844 33.155703,14.5958321 L31.0401162,13.181086 Z M26.7046065,8.05496167 C25.4123216,8.61036196 24.7461047,9.82252933 24.8831797,11.243911 L30.3574781,8.88779099 C29.4161042,7.7816121 28.1909238,7.41497717 26.7046065,8.05496167 L26.7046065,8.05496167 Z M23.0699892,14.3841133 C22.9393174,14.1724462 22.7618351,13.8337995 22.6547364,13.5846943 C22.023169,12.1184902 21.9928571,10.6011122 22.5263367,9.14433217 C23.1127977,7.54696574 24.2329965,6.32382514 25.6803266,5.70116542 C27.5001527,4.91801255 29.5126686,5.07241234 31.2568955,6.10725234 C32.3649076,6.74292501 33.150126,7.72426729 33.746734,9.11198051 C33.8226688,9.28954025 33.889386,9.4793642 33.9546573,9.64063193 L23.0699892,14.3841133 Z" id="Fill-8" fill="#FFFFFE"></path>
                            <path d="M37.7593287,2.64116316 L37.7593287,14.1922807 L39.5551686,14.9201801 L38.534839,17.3011899 L36.5525059,16.475745 C36.10769,16.2831325 35.8047514,15.9883787 35.5754755,15.6554122 C35.3563466,15.3160425 35.1922903,14.8505969 35.1922903,14.2238319 L35.1922903,2.64116316 L37.7593287,2.64116316 Z" id="Fill-10" fill="#FFFFFE"></path>
                            <path d="M42.411629,11.2497281 C42.4127909,10.2660621 42.8468402,9.38407268 43.5342291,8.78459875 L41.6918627,6.73017799 C40.4422831,7.83483355 39.655154,9.448776 39.6537557,11.2469654 C39.6516942,13.0458261 40.4377131,14.6616018 41.6860275,15.76902 L43.5263283,13.7125337 C42.8424251,13.1105295 42.4108803,12.2310962 42.411629,11.2497281" id="Fill-12" fill="#FFFFFE"></path>
                            <path d="M45.6853691,14.5280795 C45.3226071,14.5270209 44.9733228,14.4671717 44.6474566,14.3586529 L43.7674553,16.9748513 C44.3687366,17.176862 45.0128781,17.2866717 45.6825806,17.2877331 C48.5999103,17.290493 51.035967,15.2205032 51.600275,12.4687789 L48.8956711,11.9164511 C48.5880592,13.4084229 47.2674763,14.5293447 45.6853691,14.5280795" id="Fill-14" fill="#FFFFFE"></path>
                            <path d="M45.6932854,5.21736097 C45.0245123,5.21661605 44.3807065,5.32539302 43.7799674,5.52538979 L44.6520422,8.14386032 C44.9789153,8.03585793 45.3281479,7.97626684 45.6904452,7.97626684 C47.2763737,7.97776437 48.5978602,9.10534751 48.8982169,10.6011148 L51.603079,10.0525824 C51.0466717,7.29703691 48.6128613,5.21940454 45.6932854,5.21736097" id="Fill-16" fill="#FFFFFE"></path>
                        </g>
                    </g>
                </g>
            </g>
        </g>
    </g>
</svg>