<?xml version="1.0" encoding="UTF-8"?>
<svg width="132px" height="56px" viewBox="0 0 132 56" version="1.1" xmlns="http://www.w3.org/2000/svg" xmlns:xlink="http://www.w3.org/1999/xlink">
    <!-- Generator: Sketch 58 (84663) - https://sketch.com -->
    <title>bradesco</title>
    <desc>Created with Sketch.</desc>
    <defs>
        <rect id="path-1" x="0" y="0" width="132" height="56" rx="4"></rect>
    </defs>
    <g id="Home" stroke="none" stroke-width="1" fill="none" fill-rule="evenodd">
        <g id="27.0.0_home" transform="translate(-168.000000, -336.000000)">
            <g id="Group" transform="translate(20.000000, 336.000000)">
                <g id="bradesco" transform="translate(148.000000, 0.000000)">
                    <g id="Group-2">
                        <mask id="mask-2" fill="white">
                            <use xlink:href="#path-1"></use>
                        </mask>
                        <use id="Rectangle" fill="#222222" xlink:href="#path-1"></use>
                        <g id="logo_prime_novo" mask="url(#mask-2)" fill="#FFFFFF">
                            <g transform="translate(34.000000, 15.000000)">
                                <path d="M7.39932987,3.18814026 C6.48932987,3.18814026 5.49457662,3.27171169 4.51181039,3.43885455 C5.50673247,2.16147792 7.08378442,1.33791948 8.84300519,1.33791948 C10.1411481,1.33791948 11.4392909,1.82736104 12.3128234,2.55552987 C12.4706805,2.68671169 12.5919013,2.6986987 12.7132909,2.57933506 C12.8345117,2.45997143 12.8223558,2.34060779 12.6889792,2.18545195 C11.5485247,0.860464935 9.87422597,-0.0348467532 7.89670649,0.00111428571 C5.31257662,0.0487246753 3.11658961,1.68402338 2.27952468,3.9521013 C1.51522597,4.19082857 0.811537662,4.47733506 0.192771429,4.82343896 C0.0229272727,4.9189974 -0.0376831169,5.03836104 0.0229272727,5.18152987 C0.0835376623,5.31288052 0.204927273,5.36065974 0.374771429,5.31288052 C0.908615584,5.15772468 1.45461558,5.02637403 2.02475844,4.90701039 C1.96414805,5.2055039 1.92768052,5.51581558 1.92768052,5.83811429 C1.87922597,7.92706234 2.99536883,9.90863377 4.71812208,10.9947247 C4.88796623,11.1022701 5.0334987,11.1022701 5.13057662,10.9709195 C5.22765455,10.8395688 5.2154987,10.7202052 5.06996623,10.5888545 C3.97796623,9.61014026 3.37135584,8.1538026 3.37135584,6.70945195 C3.37135584,5.98128312 3.51705714,5.27708831 3.79596623,4.64430909 C4.36627792,4.5966987 4.98504416,4.56090649 5.66442078,4.56090649 C10.0805377,4.56090649 13.8051221,6.01707532 13.8051221,7.92706234 C13.8051221,8.89395844 12.5797455,9.86085455 11.1239143,10.5054519 C10.7720701,10.6606078 10.7356026,10.7679844 10.784226,10.9231403 C10.8326805,11.0664779 10.9905377,11.1140883 11.1725377,11.0544909 C13.7202,10.2189455 15.6492649,8.84617922 15.6492649,7.18707532 C15.6492649,4.93098442 12.0096026,3.18814026 7.39932987,3.18814026" id="Fill-1"></path>
                                <path d="M9.18178182,9.66117792 L7.87418442,10.4136584 L7.87418442,14.8981519 L9.27295065,14.8981519 C9.40278182,14.8981519 9.50813247,14.7929701 9.50813247,14.6629701 L9.50813247,9.82984026 C9.50813247,9.64463247 9.32934026,9.5771 9.18178182,9.66117792" id="Fill-3"></path>
                                <path d="M6.45731948,11.4042247 L6.45731948,14.7467442 C6.45731948,14.8303156 6.52502078,14.8981857 6.60876104,14.8981857 L7.50576104,14.8981857 L7.50576104,10.6255753 L6.61044935,11.1408481 C6.51573506,11.194874 6.45731948,11.2797961 6.45731948,11.4042247" id="Fill-5"></path>
                                <path d="M24.5247364,18.7676779 C24.0476195,18.7676779 23.6425935,18.9927299 23.3363338,19.4158208 C23.3273857,19.2084961 23.3003727,18.9927299 23.2644117,18.8034701 C23.1742558,18.7764571 23.0483078,18.7676779 22.9492039,18.7676779 C22.8322039,18.7676779 22.7152039,18.7854052 22.6252169,18.8034701 L22.6252169,23.2060805 C22.7239831,23.2241455 22.8502688,23.2420416 22.9853338,23.2420416 C23.1203987,23.2420416 23.2733597,23.2241455 23.3722948,23.2060805 L23.3722948,20.7212234 C23.3722948,19.9199506 23.8764247,19.3796909 24.5156195,19.3796909 C24.6329571,19.3796909 24.7678532,19.3796909 24.8580091,19.4067039 C24.8848532,19.2988208 24.8939701,19.1816519 24.8939701,19.0825481 C24.8939701,18.9927299 24.8848532,18.893626 24.8669571,18.8034701 C24.7589052,18.7854052 24.6419052,18.7676779 24.5247364,18.7676779 L24.5247364,18.7676779 Z M25.947139,17.2551195 C25.803126,17.2551195 25.6499961,17.2551195 25.542113,17.2819636 C25.5331649,17.3901844 25.5240481,17.5340286 25.5240481,17.6511974 C25.5240481,17.7680286 25.5331649,17.9122104 25.542113,18.0293792 C25.6412169,18.0472753 25.7852299,18.0562234 25.9292429,18.0562234 C26.0734247,18.0562234 26.2353338,18.0472753 26.3344377,18.0293792 C26.3433857,17.9122104 26.3525026,17.7680286 26.3525026,17.6511974 C26.3525026,17.5340286 26.3433857,17.3901844 26.3344377,17.2819636 C26.2353338,17.2551195 26.0911519,17.2551195 25.947139,17.2551195 L25.947139,17.2551195 Z M25.5601779,18.8034701 L25.5601779,23.2060805 C25.659113,23.2241455 25.7852299,23.2420416 25.9202948,23.2420416 C26.0551909,23.2420416 26.2083208,23.2241455 26.3072558,23.2060805 L26.3072558,18.8034701 C26.2083208,18.7854052 26.0822039,18.7676779 25.947139,18.7676779 C25.812074,18.7676779 25.659113,18.7854052 25.5601779,18.8034701 L25.5601779,18.8034701 Z M35.2563208,20.6042234 C35.3194636,19.7938338 35.8144766,19.3076 36.4448922,19.3076 C37.1111,19.3076 37.4801649,19.8478597 37.4801649,20.6042234 L35.2563208,20.6042234 Z M38.1825026,20.6761455 C38.1825026,19.4787948 37.4801649,18.7315481 36.4536714,18.7315481 C35.2745545,18.7315481 34.527139,19.6498208 34.527139,21.0181974 C34.527139,22.4048078 35.3013987,23.2690545 36.6339831,23.2690545 C37.1200481,23.2690545 37.6152299,23.1701195 37.9213208,23.0348857 C37.9393857,22.9450675 37.9485026,22.8459636 37.9485026,22.7466909 C37.9485026,22.6479247 37.9393857,22.5488208 37.9213208,22.4586649 C37.5341909,22.5847818 37.138113,22.6749377 36.6878403,22.6749377 C35.7876325,22.6749377 35.2922818,22.0985481 35.2473727,21.1623792 L38.1554896,21.1623792 C38.1733857,21.0543273 38.1825026,20.8022623 38.1825026,20.6761455 L38.1825026,20.6761455 Z M31.7453078,18.7315481 C31.232061,18.7315481 30.7007494,18.8664442 30.2506455,19.0825481 C29.9356065,18.8485481 29.5302429,18.7315481 29.0352299,18.7315481 C28.441113,18.7315481 27.8740091,18.8396 27.3518143,18.9927299 L27.3518143,23.2060805 C27.4507494,23.2241455 27.5768662,23.2420416 27.7117623,23.2420416 C27.8468273,23.2420416 27.9999571,23.2241455 28.0988922,23.2060805 L28.0988922,19.4517818 C28.351126,19.3796909 28.6119701,19.3347818 28.9903208,19.3347818 C29.8096584,19.3347818 30.1787234,19.7759377 30.1787234,20.7571844 L30.1787234,23.2060805 C30.2776584,23.2241455 30.4036065,23.2420416 30.5386714,23.2420416 C30.6739052,23.2420416 30.8266974,23.2241455 30.9259701,23.2060805 L30.9259701,20.7480675 C30.9259701,20.2621714 30.8358143,19.8659247 30.6558403,19.5508857 C30.9978922,19.4067039 31.349061,19.3347818 31.700061,19.3347818 C32.5285156,19.3347818 32.9516065,19.7669896 32.9516065,20.7754182 L32.9516065,23.2060805 C33.0507104,23.2241455 33.1766584,23.2420416 33.3117234,23.2420416 C33.4467883,23.2420416 33.5999182,23.2241455 33.6990221,23.2060805 L33.6990221,20.7480675 C33.6990221,19.4158208 32.9424896,18.7315481 31.7453078,18.7315481 L31.7453078,18.7315481 Z M19.5462429,22.6568727 C19.2399831,22.6568727 18.9700221,22.6207429 18.7807623,22.5668857 L18.7807623,19.4517818 C19.0779052,19.370574 19.3569831,19.3347818 19.5911519,19.3347818 C20.4915286,19.3347818 20.9956584,19.9199506 20.9956584,20.9283792 C20.9956584,22.0808208 20.4015416,22.6568727 19.5462429,22.6568727 L19.5462429,22.6568727 Z M19.6181649,18.7315481 C19.0419442,18.7315481 18.4387104,18.8664442 18.0336844,19.0015091 L18.0336844,25.258561 C18.2406714,25.1778597 18.4748403,25.069639 18.6367494,24.9166779 C18.7269052,24.8354701 18.7807623,24.7365351 18.7807623,24.5925221 L18.7807623,23.1790675 C19.0238792,23.2330935 19.2940091,23.2599377 19.573087,23.2599377 C20.8695416,23.2599377 21.7518532,22.3597299 21.7518532,20.9283792 C21.7518532,19.4879117 20.8965545,18.7315481 19.6181649,18.7315481 L19.6181649,18.7315481 Z" id="Fill-7"></path>
                                <path d="M43.627713,10.339474 C43.6837649,9.66381169 44.2353364,9.13604545 44.9128558,9.11021429 C45.4980247,9.07172078 46.0035052,9.5149026 46.0419987,10.1000714 C46.0472325,10.1800974 46.0433494,10.2602922 46.0305182,10.339474 L43.627713,10.339474 Z M44.968739,7.8249026 C43.0688818,7.8249026 41.9512195,9.05433117 41.9512195,11.1218377 C41.9512195,13.1893442 43.1806481,14.4187727 45.2483234,14.4187727 C45.9216221,14.4412273 46.5910377,14.3073442 47.2040636,14.0275909 C47.3151545,13.5874481 47.3151545,13.126539 47.2040636,12.6863961 C46.631726,12.9003052 46.0268039,13.0135909 45.4158039,13.0216948 C44.4659597,13.0216948 43.7953623,12.630513 43.627713,11.6247857 L47.5950766,11.6247857 C47.6431935,11.3293312 47.6621026,11.0298247 47.6509597,10.7306558 C47.6509597,8.88668182 46.5893494,7.8249026 44.968739,7.8249026 L44.968739,7.8249026 Z M51.6184922,10.5071234 L50.8920117,10.2277078 C50.5008299,10.0600584 50.2774662,9.89257792 50.2774662,9.66887662 C50.2774662,9.44551299 50.6125961,9.1660974 51.115713,9.1660974 C51.6676221,9.16761688 52.2153104,9.26199351 52.7359857,9.44551299 C52.8474143,9.02427922 52.8474143,8.58126623 52.7359857,8.1602013 C52.1347779,7.91151299 51.4862974,7.79704545 50.8361286,7.8249026 C49.4951026,7.8249026 48.4892065,8.55138312 48.4892065,9.61299351 C48.4892065,10.6747727 48.9362714,11.0659545 50.1098169,11.5689026 L50.6125961,11.7922662 C51.1714273,11.9600844 51.2831935,12.1275649 51.2831935,12.4628636 C51.2831935,12.7981623 50.7802455,13.0216948 50.3892325,13.0216948 C49.7348429,13.0319935 49.0861935,12.8984481 48.4892065,12.630513 C48.3779468,13.0895649 48.3779468,13.568539 48.4892065,14.0275909 C49.1780377,14.316461 49.9220766,14.4500065 50.6684792,14.4187727 C52.0095052,14.4187727 53.0714532,13.6922922 53.0714532,12.4628636 C53.0714532,11.2336039 52.6242195,10.9541883 51.6184922,10.5071234 L51.6184922,10.5071234 Z M61.8444273,13.0216948 C60.8944143,13.0216948 60.5591156,12.2393312 60.5591156,11.1218377 C60.5591156,10.0041753 60.8944143,9.22181169 61.8444273,9.22181169 C62.7942714,9.22181169 63.129739,10.0041753 63.129739,11.1218377 C63.129739,12.2393312 62.7942714,13.0216948 61.8444273,13.0216948 L61.8444273,13.0216948 Z M61.8444273,7.8249026 C59.8885182,7.8249026 58.8269078,9.11021429 58.8269078,11.1218377 C58.8269078,13.133461 59.9445701,14.4187727 61.8444273,14.4187727 C63.7442844,14.4187727 64.8617779,13.133461 64.8617779,11.1218377 C64.8617779,9.11021429 63.8001675,7.8249026 61.8444273,7.8249026 L61.8444273,7.8249026 Z M56.9829338,12.9658117 C56.1448558,12.9658117 55.5858558,12.2952143 55.5858558,11.1218377 C55.5858558,9.94829221 56.0330896,9.22181169 56.9829338,9.22181169 C57.3677,9.20999351 57.7499338,9.28630519 58.1005961,9.44551299 C58.2371805,9.00503247 58.4450117,8.58970779 58.7151416,8.21608442 C58.1080247,7.91894156 57.4340506,7.78404545 56.7594013,7.8249026 C54.8593753,7.8249026 53.7977649,9.1660974 53.7977649,11.1218377 C53.7977649,13.0775779 54.9152584,14.4187727 56.8711675,14.4187727 C57.5329857,14.4430844 58.1894013,14.2886039 58.7710247,13.9717078 C58.4715182,13.6291494 58.2434273,13.2302013 58.1005961,12.7981623 C57.7428429,12.9281623 57.3628039,12.9850584 56.9829338,12.9658117 L56.9829338,12.9658117 Z M32.5076481,12.9658117 L31.7811675,13.0775779 C30.9988039,13.0775779 30.5519078,12.7981623 30.5519078,12.2393312 C30.5519078,11.6806688 30.9988039,11.4571364 31.7811675,11.4571364 L32.5076481,11.4571364 L32.5076481,12.9658117 Z M31.5019208,7.8249026 C30.863739,7.79501948 30.224713,7.85140909 29.6018948,7.99255195 C29.5181545,8.45447403 29.5181545,8.92770779 29.6018948,9.38962987 C30.1325312,9.26385065 30.6773494,9.20762987 31.2223364,9.22181169 C32.1164662,9.22181169 32.5076481,9.55711039 32.5076481,10.2835909 L31.7252844,10.2835909 C30.2724922,10.2835909 28.9871805,10.8424221 28.9871805,12.2393312 C28.9871805,13.6364091 30.1048429,14.4187727 31.7811675,14.4187727 C32.5961156,14.3978377 33.4044792,14.2661494 34.1839727,14.0275909 L34.1839727,10.3953571 C34.1839727,8.71903247 33.2339597,7.8249026 31.5019208,7.8249026 L31.5019208,7.8249026 Z M28.3167519,7.88078571 C27.6088429,7.86204545 26.9382455,8.19734416 26.5284922,8.77491558 C26.5220766,8.4879026 26.4653494,8.2040974 26.3610117,7.93666883 L24.9639338,7.93666883 L24.9639338,14.2509545 L25.8020117,14.3628896 L26.6961416,14.2509545 L26.6961416,11.1777208 C26.6961416,9.94829221 27.3108558,9.33357792 28.2048169,9.33357792 L28.7636481,9.33357792 C28.8750766,8.87469481 28.8750766,8.39572078 28.7636481,7.93666883 L28.3167519,7.88078571 Z M20.437739,13.0216948 C20.2081286,13.0453312 19.9764922,13.0066688 19.7671416,12.9099286 L19.7671416,9.44551299 C20.0860636,9.31652597 20.4294662,9.25929221 20.7728688,9.27769481 C21.6111156,9.27769481 22.1140636,9.83652597 22.1140636,11.0100714 C22.1140636,12.1834481 21.5552325,13.0216948 20.437739,13.0216948 L20.437739,13.0216948 Z M21.0522844,7.8249026 C20.6075831,7.81224026 20.1664273,7.90813636 19.7671416,8.10431818 L19.7671416,4.97503247 C19.254739,5.17982468 18.7673234,5.44235714 18.3141805,5.7573961 C18.1240766,5.92673377 18.0212584,6.17356494 18.0349338,6.42799351 L18.0349338,14.0275909 C18.7659727,14.3051494 19.5441156,14.4380195 20.3258039,14.4187727 C22.5611286,14.4187727 23.9021545,13.0216948 23.9021545,11.0100714 C23.9021545,8.99844805 22.9523104,7.8249026 21.0522844,7.8249026 L21.0522844,7.8249026 Z M39.2132844,12.9099286 L38.4868039,13.0216948 C37.3693104,13.0216948 36.9220766,12.2393312 36.9220766,11.1777208 C36.9220766,10.1159416 37.3693104,9.22181169 38.4868039,9.22181169 L39.2132844,9.33357792 L39.2132844,12.9099286 Z M39.2132844,6.42799351 L39.2132844,7.93666883 C38.9247519,7.84465584 38.6215312,7.80683766 38.3191545,7.8249026 C36.4192974,7.8249026 35.1339857,9.11021429 35.1339857,11.1777208 C35.1339857,13.2452273 36.3634143,14.4187727 38.3750377,14.4187727 C39.247726,14.4336299 40.1167,14.3014351 40.9454922,14.0275909 L40.9454922,4.97503247 C40.4509857,5.1805 39.9819727,5.44303247 39.5485831,5.7573961 C39.3439597,5.92099351 39.2212195,6.16613636 39.2132844,6.42799351 L39.2132844,6.42799351 Z" id="Fill-9"></path>
                            </g>
                        </g>
                    </g>
                </g>
            </g>
        </g>
    </g>
</svg>